<?xml version="1.0" encoding="UTF-8" standalone="no"?>
<!-- Created with Inkscape (http://www.inkscape.org/) -->

<svg
   width="256"
   height="128"
   viewBox="0 0 67.733334 33.866667"
   version="1.1"
   id="svg1"
   xmlns:xlink="http://www.w3.org/1999/xlink"
   xmlns="http://www.w3.org/2000/svg"
   xmlns:svg="http://www.w3.org/2000/svg">
  <defs
     id="defs1">
    <linearGradient
       id="linearGradient2">
      <stop
         style="stop-color:#6ac44b;stop-opacity:1;"
         offset="0"
         id="stop2" />
      <stop
         style="stop-color:#90bd5b;stop-opacity:1;"
         offset="1"
         id="stop3" />
    </linearGradient>
    <linearGradient
       xlink:href="#linearGradient2"
       id="linearGradient3"
       x1="16.933332"
       y1="-4.9960036e-16"
       x2="16.933332"
       y2="33.866665"
       gradientUnits="userSpaceOnUse"
       gradientTransform="scale(2,1)" />
  </defs>
  <rect
     style="fill:url(#linearGradient3);stroke-width:0.373933"
     id="rect2"
     width="67.73333"
     height="33.866665"
     x="0"
     y="1.7801921e-06" />
  <g
     id="layer1">
    <path
       style="font-size:11.8905px;font-family:Minecraftia;-inkscape-font-specification:Minecraftia;fill:#496428;stroke:#1c260f;stroke-width:0.47625;paint-order:stroke fill markers"
       d="M 6.3698854,22.135427 V 17.67649 H 7.856198 v 4.458937 z m 5.9452496,0 V 17.67649 h 1.486313 v 4.458937 z M 7.856198,17.67649 v -1.486313 h 1.4863125 v 1.486313 z m 2.972625,0 v -1.486313 h 1.486312 V 17.67649 Z M 9.3425105,16.190177 v -1.486312 h 1.4863125 v 1.486312 z M 7.856198,14.703865 v -1.486313 h 1.4863125 v 1.486313 z m 2.972625,0 v -1.486313 h 1.486312 v 1.486313 z M 6.3698854,13.217552 V 11.73124 H 7.856198 v 1.486312 z m 5.9452496,0 V 11.73124 h 1.486313 v 1.486312 z m 5.945251,8.917875 v -1.486312 h 1.486312 v 1.486312 z M 16.774073,20.649115 V 17.67649 h 1.486313 v 2.972625 z m 2.972625,0 V 17.67649 h 1.486313 v 2.972625 z M 15.287761,17.67649 v -5.94525 h 1.486312 v 5.94525 z m 5.94525,0 v -5.94525 h 1.486312 v 5.94525 z m 2.972625,2.972625 v -1.486313 h 1.486313 v 1.486313 z m 1.486313,1.486312 v -1.486312 h 4.458937 V 19.162802 H 25.691949 V 17.67649 h 4.458937 v -1.486313 h 1.486313 v 5.94525 z m 0,-5.94525 v -1.486312 h 4.458937 v 1.486312 z m 13.376812,5.94525 v -5.94525 h 1.486313 v 5.94525 z m -5.94525,0 v -7.431562 h 5.94525 v 1.486312 h -4.458937 v 5.94525 z m 8.917876,0 v -7.431562 h 1.486312 v 7.431562 z m 0,-8.917875 V 11.73124 h 1.486312 v 1.486312 z m 4.458938,8.917875 v -1.486312 h 1.486312 v 1.486312 z M 45.014012,20.649115 V 11.73124 h 1.486313 v 8.917875 z m 5.945251,1.486312 v -1.486312 h 1.486313 v 1.486312 z M 49.472951,20.649115 V 11.73124 h 1.486312 v 8.917875 z m 4.458935,0 v -1.486313 h 1.486312 v 1.486313 z m 1.486312,1.486312 v -1.486312 h 4.458938 V 19.162802 H 55.418198 V 17.67649 h 4.458938 v -1.486313 h 1.486312 v 5.94525 z m 0,-5.94525 v -1.486312 h 4.458938 v 1.486312 z"
       id="text3"
       aria-label="XVanilla" />
    <path
       style="font-size:5.29167px;font-family:Minecraftia;-inkscape-font-specification:Minecraftia;fill:#496428;stroke-width:0.47625;paint-order:stroke fill markers"
       d="M 6.7932193,10.202375 V 9.540916 h 1.9843762 v 0.661459 z M 8.7775955,9.540916 V 7.5565398 H 7.4546781 V 6.895081 h 1.9843762 v 2.645835 z m -2.6458349,0 V 6.2336223 H 6.7932193 V 9.540916 Z M 6.7932193,6.2336223 V 5.5721636 h 2.645835 V 6.2336223 Z M 10.100513,10.202375 V 6.2336223 h 0.661459 V 6.895081 h 1.984376 V 6.2336223 h 0.661459 V 10.202375 H 12.746348 V 7.5565398 H 10.761972 V 10.202375 Z M 10.761972,6.2336223 V 5.5721636 h 1.984376 V 6.2336223 Z M 16.7151,9.540916 V 7.5565398 h 0.661459 V 9.540916 Z m 0,-2.645835 V 6.2336223 h 0.661459 V 6.895081 Z m -2.645835,3.307294 V 5.5721636 H 16.7151 V 6.2336223 H 14.730724 V 6.895081 H 16.7151 V 7.5565398 H 14.730724 V 9.540916 H 16.7151 v 0.661459 z m 4.630212,0 V 9.540916 h 1.984376 v 0.661459 z M 20.683853,9.540916 V 7.5565398 H 19.360936 V 6.895081 h 1.984376 v 2.645835 z m -2.645835,0 V 6.2336223 h 0.661459 V 9.540916 Z M 18.699477,6.2336223 V 5.5721636 h 2.645835 V 6.2336223 Z M 22.00677,6.895081 V 5.5721636 h 0.661459 V 6.895081 Z m 1.322918,3.307294 V 9.540916 h 2.645835 v 0.661459 z M 25.975523,9.540916 V 8.8794572 h 0.661459 V 9.540916 Z M 23.991147,8.8794572 V 8.2179985 h 1.984376 V 8.8794572 Z M 23.329688,8.2179985 V 7.5565398 h 0.661459 V 8.2179985 Z M 23.991147,7.5565398 V 6.895081 h 2.645835 v 0.6614588 z"
       id="text3-0"
       aria-label="GABG's" />
  </g>
</svg>
