<?xml version="1.0" encoding="UTF-8" standalone="no"?>
<!-- Created with Inkscape (http://www.inkscape.org/) -->

<svg
   width="128"
   height="128"
   viewBox="0 0 33.866667 33.866667"
   version="1.1"
   id="svg1"
   inkscape:version="1.3 (0e150ed6c4, 2023-07-21)"
   sodipodi:docname="icon-path.svg"
   xmlns:inkscape="http://www.inkscape.org/namespaces/inkscape"
   xmlns:sodipodi="http://sodipodi.sourceforge.net/DTD/sodipodi-0.dtd"
   xmlns:xlink="http://www.w3.org/1999/xlink"
   xmlns="http://www.w3.org/2000/svg"
   xmlns:svg="http://www.w3.org/2000/svg">
  <sodipodi:namedview
     id="namedview1"
     pagecolor="#505050"
     bordercolor="#eeeeee"
     borderopacity="1"
     inkscape:showpageshadow="0"
     inkscape:pageopacity="0"
     inkscape:pagecheckerboard="true"
     inkscape:deskcolor="#505050"
     inkscape:document-units="mm"
     inkscape:lockguides="false"
     inkscape:zoom="5.7228395"
     inkscape:cx="51.110991"
     inkscape:cy="66.487973"
     inkscape:window-width="1920"
     inkscape:window-height="999"
     inkscape:window-x="-8"
     inkscape:window-y="22"
     inkscape:window-maximized="1"
     inkscape:current-layer="layer1" />
  <defs
     id="defs1">
    <linearGradient
       id="linearGradient2"
       inkscape:collect="always">
      <stop
         style="stop-color:#6ac44b;stop-opacity:1;"
         offset="0"
         id="stop2" />
      <stop
         style="stop-color:#90bd5b;stop-opacity:1;"
         offset="1"
         id="stop3" />
    </linearGradient>
    <linearGradient
       inkscape:collect="always"
       xlink:href="#linearGradient2"
       id="linearGradient3"
       x1="16.933332"
       y1="-4.9960036e-16"
       x2="16.933332"
       y2="33.866665"
       gradientUnits="userSpaceOnUse"
       gradientTransform="translate(0)" />
    <clipPath
       clipPathUnits="userSpaceOnUse"
       id="clipPath3">
      <rect
         style="fill:#000000;fill-opacity:0;stroke-width:0.47625;paint-order:stroke fill markers"
         id="rect3"
         width="33.866665"
         height="33.866665"
         x="0"
         y="0"
         ry="1.4794521"
         inkscape:label="Round borders mask" />
    </clipPath>
  </defs>
  <g
     inkscape:groupmode="layer"
     id="layer1"
     inkscape:label="Content"
     style="display:inline"
     clip-path="url(#clipPath3)">
    <rect
       style="fill:url(#linearGradient3);stroke-width:0.264411"
       id="rect2"
       width="33.866665"
       height="33.866665"
       x="0"
       y="1.7801921e-06"
       inkscape:label="Background" />
    <path
       style="font-size:11.8905px;font-family:Minecraftia;-inkscape-font-specification:Minecraftia;fill:#496428;stroke:#1c260f;stroke-width:0.47625;paint-order:stroke fill markers"
       d="m 5.7859894,22.135427 v -1.486312 h 4.4589376 v 1.486312 z M 10.244927,20.649115 V 16.190177 H 7.2723019 v -1.486312 h 4.4589371 v 5.94525 z m -5.9452501,0 v -7.431563 h 1.4863125 v 7.431563 z M 5.7859894,13.217552 V 11.73124 h 5.9452496 v 1.486312 z m 7.4315626,8.917875 V 17.67649 h 1.486313 v 4.458937 z m 5.94525,0 V 17.67649 h 1.486313 v 4.458937 z M 14.703865,17.67649 v -1.486313 h 1.486312 v 1.486313 z m 2.972625,0 v -1.486313 h 1.486312 v 1.486313 z m -1.486313,-1.486313 v -1.486312 h 1.486313 v 1.486312 z m -1.486312,-1.486312 v -1.486313 h 1.486312 v 1.486313 z m 2.972625,0 v -1.486313 h 1.486312 v 1.486313 z M 13.217552,13.217552 V 11.73124 h 1.486313 v 1.486312 z m 5.94525,0 V 11.73124 h 1.486313 v 1.486312 z m 5.94525,8.917875 v -1.486312 h 1.486313 v 1.486312 z M 23.62174,20.649115 V 17.67649 h 1.486312 v 2.972625 z m 2.972625,0 V 17.67649 h 1.486313 v 2.972625 z M 22.135427,17.67649 v -5.94525 h 1.486313 v 5.94525 z m 5.945251,0 v -5.94525 h 1.486312 v 5.94525 z"
       id="text3"
       inkscape:label="Text"
       aria-label="GXV" />
  </g>
</svg>
